name Walk6.mot
datacolumns 19
datarows 12
range 2.77500000 2.83000000
endheader

                time	   L_ground_force_vx	   L_ground_force_vy	   L_ground_force_vz	   L_ground_force_px	   L_ground_force_py	   L_ground_force_pz	   R_ground_force_vx	   R_ground_force_vy	   R_ground_force_vz	   R_ground_force_px	   R_ground_force_py	   R_ground_force_pz	   L_ground_torque_x	   L_ground_torque_y	   L_ground_torque_z	   R_ground_torque_x	   R_ground_torque_y	   R_ground_torque_z	
          2.77500000	          0.07305446	          0.16399580	         -0.00124788	         -0.00017707	          0.00000000	         -0.00003099	        -20.98858211	        667.01036204	        -44.60635277	          0.39292452	          0.00000000	          0.10528097	          0.00000000	          0.00013036	          0.00000000	          0.00000000	          4.39647593	          0.00000000	
          2.78000000	          0.05590873	          0.12922430	         -0.00299988	         -0.00018542	          0.00000000	         -0.00002955	        -19.70934363	        662.42153933	        -43.30258373	          0.39520479	          0.00000000	          0.10536604	          0.00000000	          0.00005577	          0.00000000	          0.00000000	          4.09950011	          0.00000000	
          2.78500000	          0.04049181	          0.09670594	         -0.00388615	         -0.00017611	          0.00000000	         -0.00002629	        -18.51135164	        658.59105202	        -42.03331852	          0.39748304	          0.00000000	          0.10545544	          0.00000000	          0.00000353	          0.00000000	          0.00000000	          3.83150910	          0.00000000	
          2.79000000	          0.02740282	          0.06820427	         -0.00414715	         -0.00015621	          0.00000000	         -0.00002212	        -17.38040841	        655.52211741	        -40.84848707	          0.39975207	          0.00000000	          0.10555185	          0.00000000	         -0.00003025	          0.00000000	          0.00000000	          3.59047197	          0.00000000	
          2.79500000	          0.01684187	          0.04453257	         -0.00398654	         -0.00013110	          0.00000000	         -0.00001769	        -16.30065589	        653.21641612	        -39.80226006	          0.40200480	          0.00000000	          0.10565524	          0.00000000	         -0.00004952	          0.00000000	          0.00000000	          3.37301919	          0.00000000	
          2.80000000	          0.00873735	          0.02583038	         -0.00356825	         -0.00010463	          0.00000000	         -0.00001346	        -15.25522595	        651.67748065	        -38.94212114	          0.40423524	          0.00000000	          0.10576540	          0.00000000	         -0.00005796	          0.00000000	          0.00000000	          3.17463845	          0.00000000	
          2.80500000	          0.00284906	          0.01179415	         -0.00301781	         -0.00007937	          0.00000000	         -0.00000968	        -14.22850832	        650.90751807	        -38.30020740	          0.40643840	          0.00000000	          0.10588244	          0.00000000	         -0.00005879	          0.00000000	          0.00000000	          2.99023628	          0.00000000	
          2.81000000	         -0.00115231	          0.00186022	         -0.00242615	         -0.00005690	          0.00000000	         -0.00000649	        -13.20771955	        650.90100674	        -37.89046167	          0.40860976	          0.00000000	          0.10600421	          0.00000000	         -0.00005467	          0.00000000	          0.00000000	          2.81488804	          0.00000000	
          2.81500000	         -0.00362718	         -0.00465734	         -0.00185485	         -0.00003799	          0.00000000	         -0.00000393	        -12.18354603	        651.64183887	        -37.70988505	          0.41074626	          0.00000000	          0.10612744	          0.00000000	         -0.00004771	          0.00000000	          0.00000000	          2.64426218	          0.00000000	
          2.82000000	         -0.00492740	         -0.00846858	         -0.00134179	         -0.00002286	          0.00000000	         -0.00000198	        -11.14931014	        653.10107157	        -37.74134277	          0.41284608	          0.00000000	          0.10624765	          0.00000000	         -0.00003947	          0.00000000	          0.00000000	          2.47461648	          0.00000000	
          2.82500000	         -0.00537151	         -0.01024290	         -0.00090665	         -0.00001135	          0.00000000	         -0.00000057	        -10.10017424	        655.24060984	        -37.95730830	          0.41490869	          0.00000000	          0.10635980	          0.00000000	         -0.00003106	          0.00000000	          0.00000000	          2.30280529	          0.00000000	
          2.83000000	         -0.00523148	         -0.01057064	         -0.00055590	         -0.00000307	          0.00000000	          0.00000038	         -9.03366497	        658.01853706	        -38.32457078	          0.41693717	          0.00000000	          0.10645939	          0.00000000	         -0.00002322	          0.00000000	          0.00000000	          2.12607289	          0.00000000	
